<?xml version="1.0" encoding="UTF-8"?>
<svg width="36px" height="36px" viewBox="0 0 36 36" version="1.1" xmlns="http://www.w3.org/2000/svg" xmlns:xlink="http://www.w3.org/1999/xlink">
    <title>图标/36/附件文件格式/其他</title>
    <defs>
        <linearGradient x1="50%" y1="1.05321924%" x2="50%" y2="100%" id="linearGradient-1">
            <stop stop-color="#A690FF" offset="0%"></stop>
            <stop stop-color="#7F60FF" offset="100%"></stop>
        </linearGradient>
    </defs>
    <g id="交办督办/系统管理" stroke="none" stroke-width="1" fill="none" fill-rule="evenodd">
        <g id="系统管理/收件箱/消息详情2" transform="translate(-857.000000, -742.000000)">
            <g id="编组-4备份-7" transform="translate(857.000000, 742.000000)">
                <path d="M6,0 L20,0 L20,0 L24.5800136,0 L35,11 L35,18 L35,35 C35,35.5522847 34.5522847,36 34,36 L6,36 C5.44771525,36 5,35.5522847 5,35 L5,1 C5,0.44771525 5.44771525,1.01453063e-16 6,0 Z" id="矩形" fill="url(#linearGradient-1)"></path>
                <polygon id="路径-5" fill="#000000" fill-rule="nonzero" opacity="0.0792686826" points="25.1952383 10.9386748 35 18.7802836 35 11.0090828"></polygon>
                <path d="M35,11 L25.5800136,11 C25.0277289,11 24.5800136,10.5522847 24.5800136,10 L24.5800136,0 L24.5800136,0 L35,11 Z" id="路径-4" fill="#CFC4FF" fill-rule="nonzero"></path>
                <g id="编组" transform="translate(1.000000, 16.000000)">
                    <rect id="矩形" fill-opacity="0.7" fill="#6343E7" x="0" y="0" width="28" height="13" rx="2"></rect>
                    <circle id="椭圆形" fill="#FFFFFF" cx="8.5" cy="4.5" r="1.5"></circle>
                    <path d="M9.22315495,9.68450667 L11.7917481,6.05306584 C11.9193185,5.87270858 12.1689432,5.82991639 12.3493005,5.95748681 C12.3720257,5.97356085 12.393011,5.9919631 12.4119154,6.01239442 L14.4619806,8.22805601 C14.5745051,8.34966976 14.7643116,8.35703808 14.8859254,8.24451362 C14.8971629,8.23411603 14.9075879,8.22287349 14.9171092,8.21088451 L17.9085123,4.44417686 C18.0459002,4.27118113 18.2975158,4.24231527 18.4705115,4.37970314 C18.506347,4.40816254 18.5370331,4.44256013 18.5612342,4.48139854 L21.8094674,9.69422946 C21.8678829,9.78797578 21.8392416,9.91132727 21.7454953,9.96974272 C21.7137601,9.98951763 21.6771168,10 21.6397247,10 L9.38643781,10 C9.27598086,10 9.18643781,9.91045695 9.18643781,9.8 C9.18643781,9.75863137 9.19926595,9.71828061 9.22315495,9.68450667 Z" id="路径-3" fill="#FFFFFF"></path>
                </g>
            </g>
        </g>
    </g>
</svg>