<?xml version="1.0" encoding="UTF-8"?>
<svg width="37px" height="36px" viewBox="0 0 37 36" version="1.1" xmlns="http://www.w3.org/2000/svg" xmlns:xlink="http://www.w3.org/1999/xlink">
    <title>图标/36/附件文件格式/PPT</title>
    <defs>
        <linearGradient x1="50%" y1="1.05321924%" x2="50%" y2="100%" id="linearGradient-1">
            <stop stop-color="#FF9C51" offset="0%"></stop>
            <stop stop-color="#FA7407" offset="100%"></stop>
        </linearGradient>
    </defs>
    <g id="交办督办/系统管理" stroke="none" stroke-width="1" fill="none" fill-rule="evenodd">
        <g id="系统管理/收件箱/消息详情2" transform="translate(-449.000000, -742.000000)">
            <g id="编组-4备份-2" transform="translate(449.097619, 742.000000)">
                <path d="M6,0 L20,0 L20,0 L24.5800136,0 L35,11 L35,18 L35,35 C35,35.5522847 34.5522847,36 34,36 L6,36 C5.44771525,36 5,35.5522847 5,35 L5,1 C5,0.44771525 5.44771525,1.01453063e-16 6,0 Z" id="矩形" fill="url(#linearGradient-1)"></path>
                <polygon id="路径-5" fill="#000000" fill-rule="nonzero" opacity="0.0792686826" points="25.1952383 10.9386748 35 18.7802836 35 11.0090828"></polygon>
                <path d="M35,11 L25.5800136,11 C25.0277289,11 24.5800136,10.5522847 24.5800136,10 L24.5800136,0 L24.5800136,0 L35,11 Z" id="路径-4" fill="#FFDBBF" fill-rule="nonzero"></path>
                <rect id="矩形" fill-opacity="0.7" fill="#BF6317" x="1" y="16" width="28" height="13" rx="2"></rect>
                <text id="P" font-family="PingFangSC-Semibold, PingFang SC" font-size="10" font-weight="500" line-spacing="12" fill="#FFFFFF">
                    <tspan x="10.955" y="27.5">P</tspan>
                </text>
            </g>
        </g>
    </g>
</svg>