<?xml version="1.0" standalone="no"?><!DOCTYPE svg PUBLIC "-//W3C//DTD SVG 1.1//EN" "http://www.w3.org/Graphics/SVG/1.1/DTD/svg11.dtd"><svg class="icon" width="200px" height="200.00px" viewBox="0 0 1024 1024" version="1.1" xmlns="http://www.w3.org/2000/svg"><path d="M862.68 783.63c0 55.74-45.41 101.15-101.15 101.15H262.45c-55.74 0-101.15-45.4-101.15-101.15V386.24c0-6.64 3.14-13.1 8.49-17.16l271.32-206.35c20.49-15.69 45.03-24 70.88-24 25.84 0 50.39 8.31 70.88 24l271.32 206.35c5.35 4.06 8.49 10.52 8.49 17.16v397.39z m35.99-473.43L627.54 103.85A190.441 190.441 0 0 0 512 64.9c-40.79 0-81.4 12.92-115.54 38.95L125.13 310.2c-23.81 18.09-37.65 46.14-37.65 76.04v397.57c0 96.72 78.44 174.98 174.98 174.98h498.9c96.72 0 174.98-78.45 174.98-174.98V386.24c0.17-29.9-13.86-57.96-37.67-76.04zM511.85 476.31c-98.19 0-178.11 79.92-178.11 178.11v123.85c0 20.3 16.61 36.91 36.91 36.91 20.3 0 36.92-16.61 36.92-36.91V654.42c0-57.4 46.7-104.28 104.28-104.28s104.28 46.7 104.28 104.28v123.85c0 20.3 16.61 36.91 36.92 36.91 20.3 0 36.91-16.61 36.91-36.91V654.42c0-98.18-79.73-178.11-178.11-178.11z" /></svg>