<?xml version="1.0" encoding="UTF-8"?>
<svg width="12px" height="12px" viewBox="0 0 12 12" version="1.1" xmlns="http://www.w3.org/2000/svg" xmlns:xlink="http://www.w3.org/1999/xlink">
    <title>图标/收起</title>
    <g id="考核管理" stroke="none" stroke-width="1" fill="none" fill-rule="evenodd">
        <g id="考核管理-首页" transform="translate(-1388.000000, -240.000000)">
            <g id="编组-15" transform="translate(1050.000000, 218.000000)">
                <g id="Tab/Line32/Default" transform="translate(20.000000, 16.000000)">
                    <g id="编组-13" transform="translate(286.000000, 1.000000)">
                        <g id="编组-6" transform="translate(38.000000, 11.000000) rotate(-270.000000) translate(-38.000000, -11.000000) translate(32.000000, 5.000000)">
                            <rect id="矩形" fill-opacity="0" fill="#000000" x="0" y="0" width="12" height="12"></rect>
                            <path d="M10.9344044,3.12040486 C11.1267923,3.29363172 11.1423254,3.59002105 10.9690985,3.78240897 L6.41085313,8.84485334 C6.31413481,8.95226993 6.17902228,9.00455448 6.04505405,8.99963488 C5.91115353,9.00481426 5.77560917,8.95253713 5.67865025,8.84485334 L5.67865025,8.84485334 L1.12040486,3.78240897 C0.947178003,3.59002105 0.96271111,3.29363172 1.15509903,3.12040486 C1.34748694,2.947178 1.64387628,2.96271111 1.81710313,3.15509903 L1.81710313,3.15509903 L6.045,7.85 L10.2724002,3.15509903 C10.4456271,2.96271111 10.7420164,2.947178 10.9344044,3.12040486 Z" id="down" fill="#3786FD" fill-rule="nonzero" transform="translate(6.044752, 5.999976) scale(1, -1) translate(-6.044752, -5.999976) "></path>
                        </g>
                    </g>
                </g>
            </g>
        </g>
    </g>
</svg>