<?xml version="1.0" encoding="UTF-8"?>
<svg width="16px" height="17px" viewBox="0 0 16 17" version="1.1" xmlns="http://www.w3.org/2000/svg" xmlns:xlink="http://www.w3.org/1999/xlink">
    <title>图标/16/设置</title>
    <g id="考核管理" stroke="none" stroke-width="1" fill="none" fill-rule="evenodd">
        <g id="考核管理-首页" transform="translate(-1142.000000, -239.000000)" fill="#666666" fill-rule="nonzero">
            <g id="编组-15" transform="translate(1050.000000, 218.000000)">
                <g id="Tab/Line32/Default" transform="translate(20.000000, 16.000000)">
                    <g id="齿轮-(1)" transform="translate(72.000000, 5.000000)">
                        <path d="M10.3487429,15.0289886 L10.34856,15.0289886 C10.05928,15.0289886 9.77804571,14.9093086 9.59637714,14.7088971 C9.34878857,14.4374457 8.56460571,13.7317086 7.92259429,13.7317086 C7.28506286,13.7317086 6.48872,14.44156 6.25996571,14.6901543 C6.07875429,14.8870914 5.79944,15.00476 5.51281143,15.00476 C5.3764,15.00476 5.24748571,14.97852 5.12990857,14.9268629 L5.10942857,14.9178114 L3.15806857,13.8266114 L3.13877714,13.81308 C2.78348571,13.5643029 2.64844571,13.0779943 2.82435429,12.6817429 C2.82572571,12.6786343 3.00428571,12.2665657 3.00428571,11.8907029 C3.00428571,10.7502229 2.07656,9.82240571 0.935805714,9.82240571 L0.866777143,9.82240571 L0.854068571,9.82258857 C0.527485714,9.82258857 0.261428571,9.53230286 0.1764,9.08302286 C0.169725714,9.04745714 0.01,8.19552571 0.01,7.52425714 C0.01,6.85298857 0.169725714,6.00105714 0.1764,5.96503429 C0.262434286,5.51017714 0.534251429,5.21797143 0.866777143,5.22601714 L0.935805714,5.22601714 C2.07646857,5.22601714 3.00428571,4.29801714 3.00428571,3.15744571 C3.00428571,2.78185714 2.82590857,2.36960571 2.82398857,2.36567429 C2.64817143,1.96960571 2.78421714,1.48348 3.14088,1.23552571 L3.16108571,1.22153714 L5.22042286,0.0902914286 L5.24181714,0.08124 C5.35774857,0.0317771429 5.48483429,0.00672571429 5.61932571,0.00672571429 C5.90531429,0.00672571429 6.18499429,0.121742857 6.36794286,0.314565714 C6.61169143,0.569742857 7.38216,1.23342286 8.00588571,1.23342286 C8.62330286,1.23342286 9.38901714,0.582817143 9.63212571,0.33212 C9.81388571,0.14332 10.09192,0.0302228571 10.3749829,0.0302228571 C10.5123086,0.0302228571 10.64168,0.0561885714 10.75944,0.10748 L10.7802857,0.116531429 L12.7693143,1.22162857 L12.7889714,1.23525143 C13.1448114,1.48366286 13.2801257,1.96997143 13.1043086,2.36658857 C13.1027543,2.36951429 12.9242857,2.78185714 12.9242857,3.15753714 C12.9242857,4.29810857 13.8520114,5.22610857 14.9925829,5.22610857 L15.0617943,5.22610857 C15.3937714,5.21852 15.6658629,5.51017714 15.7519886,5.96512571 C15.7587543,6.00105714 15.9185714,6.85298857 15.9185714,7.52425714 C15.9185714,8.19534286 15.7587543,9.04745714 15.7519886,9.08320571 C15.6659543,9.53824571 15.3937714,9.82926286 15.0617943,9.82258857 L14.9925829,9.82258857 C13.8520114,9.82258857 12.9242857,10.7504057 12.9242857,11.8908857 C12.9242857,12.2666571 13.1027543,12.6786343 13.1045829,12.68284 C13.2801257,13.07836 13.1446286,13.56476 12.7884229,13.8129886 L12.7684,13.8267943 L10.7459086,14.9446914 L10.72488,14.9537429 C10.6091314,15.0037543 10.4825029,15.0289886 10.3487429,15.0289886 Z M10.2873029,14.0760286 C10.2965371,14.0820629 10.3219543,14.09212 10.3487429,14.09212 L10.35176,14.09212 L12.2415886,13.04764 C12.1959657,12.9415829 11.9872343,12.42748 11.9872343,11.8910686 C11.9872343,10.2867714 13.2508686,8.97193714 14.8350514,8.88983429 C14.8577257,8.76393714 14.98152,8.05573143 14.98152,7.52425714 C14.98152,6.99287429 14.8577257,6.28494286 14.8350514,6.15868 C13.2508686,6.07648571 11.9872343,4.76174286 11.9872343,3.15744571 C11.9872343,2.62030286 12.1964229,2.10546857 12.2417714,2.00032571 L10.3827543,0.967457143 C10.3807429,0.967365714 10.3779086,0.967182857 10.3749829,0.967182857 C10.3433486,0.967182857 10.3137257,0.978611429 10.3040343,0.985285714 C10.2726743,1.01737714 10.0032343,1.29056571 9.61630857,1.56293143 C9.04323429,1.96613143 8.50152,2.17047429 8.00597714,2.17047429 C7.50540571,2.17047429 6.95912,1.96201714 6.38257143,1.55086286 C5.99336,1.27328571 5.72236571,0.994885714 5.69128,0.962245714 C5.68131429,0.95548 5.65141714,0.943685714 5.61941714,0.943685714 L5.61265143,0.943868571 L3.68716571,2.00142286 C3.73324571,2.10876 3.94124571,2.62194857 3.94124571,3.15744571 C3.94124571,4.76174286 2.67779429,6.07648571 1.09352,6.15877143 C1.07066286,6.28476 0.946868571,6.99287429 0.946868571,7.52434857 C0.946868571,8.05564 1.07066286,8.76348 1.09352,8.88992571 C2.67779429,8.97202857 3.94124571,10.28668 3.94124571,11.8909771 C3.94124571,12.4293086 3.73123429,12.9451486 3.68643429,13.04892 L5.50888,14.0679829 C5.53148569,14.0686621 5.55386314,14.0632965 5.57370286,14.05244 C5.60780571,14.0158686 5.88008,13.7277771 6.27221714,13.4405086 C6.85653714,13.0121657 7.41187429,12.7950229 7.92268571,12.7950229 C8.43843429,12.7950229 8.99806857,13.01628 9.58577143,13.4526686 C9.98010286,13.7455143 10.2535657,14.0390914 10.2873029,14.0760286 Z" id="形状"></path>
                        <path d="M7.92926857,10.2683943 C6.41045714,10.2683943 5.1748,9.03264571 5.1748,7.51383429 C5.1748,5.99502286 6.41045714,4.75936571 7.92926857,4.75936571 C9.44835429,4.75936571 10.68392,5.99502286 10.68392,7.51383429 C10.68392,9.03264571 9.44835429,10.2683943 7.92926857,10.2683943 Z M7.92926857,5.69614286 C6.92712,5.69614286 6.11166857,6.51159429 6.11166857,7.51374286 C6.11166857,8.51598286 6.92702857,9.33134286 7.92926857,9.33134286 C8.93169143,9.33134286 9.74714286,8.51598286 9.74714286,7.51374286 C9.74714286,6.51159429 8.93169143,5.69614286 7.92926857,5.69614286 L7.92926857,5.69614286 Z" id="形状"></path>
                    </g>
                </g>
            </g>
        </g>
    </g>
</svg>