<?xml version="1.0" encoding="UTF-8"?>
<svg width="18px" height="18px" viewBox="0 0 18 18" version="1.1" xmlns="http://www.w3.org/2000/svg" xmlns:xlink="http://www.w3.org/1999/xlink">
    <title>图标/18/银牌</title>
    <g id="考核管理" stroke="none" stroke-width="1" fill="none" fill-rule="evenodd">
        <g id="考核管理-首页" transform="translate(-683.000000, -310.000000)">
            <g id="编组-16" transform="translate(663.000000, 218.000000)">
                <g id="编组-8备份" transform="translate(20.000000, 90.000000)">
                    <g id="编组-8" transform="translate(0.000000, 2.000000)">
                        <path d="M18,9 C18,13.970524 13.9705502,18 8.9999414,18 C4.02944976,18 0,13.9704947 0,8.9999707 C0,4.02944669 4.02944978,0 8.9999414,0 C13.9705502,0 18,4.02944672 18,8.9999707" id="路径" fill="#D0D0D0" fill-rule="nonzero"></path>
                        <path d="M16,8.99998536 C16,12.8660407 12.8660306,16 8.99995603,16 C5.13399863,16 2,12.8660114 2,8.99998536 C2,5.13398861 5.13399865,2 8.99995603,2 C12.8660306,2 16,5.13398861 16,8.99998536" id="路径" fill="#EFEFEF" fill-rule="nonzero"></path>
                        <text id="2" font-family="PingFangSC-Semibold, PingFang SC" font-size="13" font-weight="500" line-spacing="14" fill="#B5B8B9">
                            <tspan x="5.08695652" y="15.5652174">2</tspan>
                        </text>
                    </g>
                </g>
            </g>
        </g>
    </g>
</svg>