<?xml version="1.0" standalone="no"?><!DOCTYPE svg PUBLIC "-//W3C//DTD SVG 1.1//EN" "http://www.w3.org/Graphics/SVG/1.1/DTD/svg11.dtd"><svg class="icon" width="200px" height="200.00px" viewBox="0 0 1024 1024" version="1.1" xmlns="http://www.w3.org/2000/svg"><path d="M377.6 947.2l-48-48h361.6l-48 48c-70.4 73.6-192 73.6-265.6 0zM832 492.8v-115.2c0-166.4-128-304-288-320v-3.2c0-19.2-12.8-32-32-32s-32 12.8-32 32v3.2c-163.2 16-288 153.6-288 320v115.2c0 131.2-44.8 262.4-128 364.8h896c-83.2-102.4-128-233.6-128-364.8z m-576 0v-115.2c0-134.4 99.2-243.2 230.4-256l28.8-3.2 22.4 3.2c131.2 12.8 230.4 121.6 230.4 256v115.2c0 105.6 25.6 208 73.6 300.8H182.4C230.4 700.8 256 598.4 256 492.8z"  /></svg>