<?xml version="1.0" encoding="UTF-8"?>
<svg width="143px" height="23px" viewBox="0 0 143 23" version="1.1" xmlns="http://www.w3.org/2000/svg" xmlns:xlink="http://www.w3.org/1999/xlink">
    <title>综合管理考核</title>
    <g id="交办督办/系统管理" stroke="none" stroke-width="1" fill="none" fill-rule="evenodd">
        <g id="系统管理/收件箱备份" transform="translate(-57.000000, -21.000000)" fill="#FFFFFF" fill-rule="nonzero">
            <g id="编组-3">
                <path d="M64.546875,37.0195312 L64.546875,34.3710938 L60.6210938,34.3710938 C62.6289062,32.2382812 64.0039062,30.3554688 64.7460938,28.7226562 C64.9570312,28.2460938 65.234375,27.484375 65.578125,26.4375 L65.578125,26.4375 L65.578125,28.1484375 L67.2539062,28.1484375 L67.2539062,30.1523438 L77.0507812,30.1523438 L77.0507812,28.1484375 L78.8554688,28.1484375 L78.8554688,23.4492188 L74.0039062,23.4492188 L73.9570312,23.3203125 C73.7304688,22.625 73.375,21.8789062 72.890625,21.0820312 L72.890625,21.0820312 L69.7734375,21.0820312 C70,21.9101562 70.140625,22.6171875 70.1953125,23.203125 C70.203125,23.2578125 70.2148438,23.3398438 70.2304688,23.4492188 L70.2304688,23.4492188 L65.578125,23.4492188 L65.578125,26.2617188 L62.2382812,26.2617188 C62.0195312,27.0117188 61.8398438,27.5976562 61.6992188,28.0195312 L61.6992188,28.0195312 L60.1757812,28.0195312 C61.1601562,26.8085938 61.9570312,25.6132812 62.5664062,24.4335938 C63.0195312,23.5585938 63.4023438,22.4726562 63.7148438,21.1757812 L63.7148438,21.1757812 L60.2226562,21.1757812 C59.6210938,24.1289062 58.5585938,26.4257812 57.0351562,28.0664062 L57.0351562,28.0664062 L57.0351562,30.6445312 L60.4101562,30.6445312 C59.4570312,32.1601562 58.3984375,33.4257812 57.234375,34.4414062 L57.234375,34.4414062 L57.234375,37.0195312 L64.546875,37.0195312 Z M75.6679688,27.5039062 L68.8476562,27.5039062 L68.8476562,26.0976562 L75.6679688,26.0976562 L75.6679688,27.5039062 Z M71.8007812,42.703125 C73.2539062,42.703125 73.9804688,42.015625 73.9804688,40.640625 L73.9804688,40.640625 L73.9804688,34.1367188 L78.75,34.1367188 L78.75,31.4882812 L65.71875,31.4882812 L65.71875,34.1367188 L70.3945312,34.1367188 L70.3945312,40.0546875 L68.3085938,40.0546875 L68.9179688,42.703125 L71.8007812,42.703125 Z M79.1835938,41.8710938 C78.7695312,40.2304688 78.2421875,38.6601562 77.6015625,37.1601562 C77.4296875,36.7460938 77.0625,36.0195312 76.5,34.9804688 L76.5,34.9804688 L74.3320312,34.9921875 C75.0039062,37.25 75.4804688,39.5429688 75.7617188,41.8710938 L75.7617188,41.8710938 L79.1835938,41.8710938 Z M64.640625,42.09375 C65.546875,41.6796875 66.1992188,41.3359375 66.5976562,41.0625 C67.9648438,40.109375 68.9140625,38.8125 69.4453125,37.171875 C69.6015625,36.6953125 69.75,35.9648438 69.890625,34.9804688 L69.890625,34.9804688 L66.8320312,34.9804688 C66.6054688,36.3554688 66.2734375,37.46875 65.8359375,38.3203125 C65.578125,38.8203125 65.1796875,39.3164062 64.640625,39.8085938 L64.640625,39.8085938 L64.640625,42.09375 Z M57,42.4921875 L64.3359375,40.7109375 L64.3359375,38.34375 L57,39.1523438 L57,42.4921875 Z M81,30.8671875 C83.015625,30.3046875 84.5820312,29.7617188 85.6992188,29.2382812 L85.6992188,29.2382812 L86.0976562,30.7148438 L98.578125,30.7148438 L98.0976562,28.9570312 C99.3398438,29.5664062 101.015625,30.1953125 103.125,30.84375 L103.125,30.84375 L103.125,28.2773438 C102.578125,28.0507812 102.164062,27.875 101.882812,27.75 C99.75,26.796875 97.9375,25.5625 96.4453125,24.046875 C95.71875,23.3046875 94.9648438,22.296875 94.1835938,21.0234375 L94.1835938,21.0234375 L94.1953125,21.0117188 L94.1835938,21.0117188 L94.171875,21 L94.1601562,21.0117188 L89.8476562,21.0117188 C89.4335938,21.7226562 89.0742188,22.2929688 88.7695312,22.7226562 C88.1132812,23.6757812 87.21875,24.5859375 86.0859375,25.453125 C84.8046875,26.4453125 83.109375,27.3984375 81,28.3125 L81,28.3125 L81,30.8671875 Z M96.4453125,28.078125 L87.890625,28.078125 C89.6953125,26.9765625 91.0742188,25.7851562 92.0273438,24.5039062 C93.1367188,25.6445312 93.984375,26.4296875 94.5703125,26.859375 C95.140625,27.2734375 95.765625,27.6796875 96.4453125,28.078125 L96.4453125,28.078125 Z M100.054688,42.421875 L100.054688,32.390625 L84.0234375,32.390625 L84.0234375,42.421875 L100.054688,42.421875 Z M96.1523438,39.7851562 L87.9257812,39.7851562 L87.9257812,35.0273438 L96.1523438,35.0273438 L96.1523438,39.7851562 Z M124.066406,42.4335938 L124.066406,36.65625 L112.6875,36.65625 L112.6875,35.7539062 L122.847656,35.7539062 L122.847656,30.1640625 L109.3125,30.1640625 L109.3125,29.3554688 L122.941406,29.3554688 L122.941406,31.7226562 L126.457031,31.7226562 L126.457031,27.0351562 L117.960938,27.0351562 C117.835938,26.7695312 117.683594,26.484375 117.503906,26.1796875 L117.503906,26.1796875 L117.445312,26.0859375 C118.15625,25.6953125 118.757812,25.2734375 119.25,24.8203125 L119.25,24.8203125 L120.246094,24.8203125 C120.371094,25.2109375 120.515625,25.7929688 120.679688,26.5664062 L120.679688,26.5664062 L124.253906,26.5664062 C123.964844,25.8320312 123.675781,25.25 123.386719,24.8203125 L123.386719,24.8203125 L127.019531,24.8203125 L127.019531,22.3242188 L120.890625,22.3242188 C120.984375,22.0664062 121.117188,21.6289062 121.289062,21.0117188 L121.289062,21.0117188 L117.527344,21.0117188 C117.332031,21.9648438 117.105469,22.7148438 116.847656,23.2617188 C116.652344,23.6914062 116.351562,24.1367188 115.945312,24.5976562 L115.945312,24.5976562 L115.945312,22.3242188 L111.714844,22.3242188 C111.824219,22.0507812 111.980469,21.6132812 112.183594,21.0117188 L112.183594,21.0117188 L108.445312,21.0117188 C108.015625,22.1992188 107.453125,23.1523438 106.757812,23.8710938 C106.4375,24.1992188 105.914062,24.5976562 105.1875,25.0664062 L105.1875,25.0664062 L105.1875,27.3164062 C105.398438,27.2460938 105.601562,27.1757812 105.796875,27.1054688 L105.796875,27.1054688 L105.796875,31.7226562 L109.171875,31.7226562 L109.171875,42.4335938 L124.066406,42.4335938 Z M114.492188,27.0351562 L105.996094,27.0351562 C107.535156,26.4335938 108.84375,25.6953125 109.921875,24.8203125 L109.921875,24.8203125 L110.519531,24.8203125 C110.628906,25.1328125 110.773438,25.7148438 110.953125,26.5664062 L110.953125,26.5664062 L114.363281,26.5664062 C114.410156,26.7304688 114.453125,26.8867188 114.492188,27.0351562 L114.492188,27.0351562 Z M115.828125,26.015625 L114.421875,26.015625 C114.226562,25.6015625 113.992188,25.203125 113.71875,24.8203125 L113.71875,24.8203125 L115.828125,24.8203125 L115.828125,26.015625 Z M119.25,33.515625 L112.6875,33.515625 L112.6875,32.4023438 L119.25,32.4023438 L119.25,33.515625 Z M120.46875,40.1953125 L112.6875,40.1953125 L112.6875,38.8945312 L120.46875,38.8945312 L120.46875,40.1953125 Z M151.207031,42.4335938 L151.21875,39.7851562 L145.6875,39.7851562 L145.6875,37.8046875 L150.375,37.8046875 L150.375,35.15625 L145.6875,35.15625 L145.6875,33.5390625 L150.210938,33.5390625 L150.210938,21.8554688 L137.519531,21.8554688 L137.519531,33.5390625 L141.960938,33.5390625 L141.960938,35.15625 L137.273438,35.15625 L137.273438,37.8046875 L141.960938,37.8046875 L141.960938,39.7851562 L135.867188,39.7851562 L135.867188,42.4335938 L151.207031,42.4335938 Z M128.929688,41.2265625 L136.816406,38.6601562 L136.816406,36.1054688 L134.71875,36.5273438 L134.71875,31.828125 L136.523438,31.828125 L136.523438,29.1796875 L134.71875,29.1796875 L134.71875,24.84375 L136.804688,24.84375 L136.804688,22.1953125 L129.128906,22.1953125 L129.128906,24.84375 L131.121094,24.84375 L131.121094,29.1796875 L129.222656,29.1796875 L129.222656,31.828125 L131.121094,31.828125 L131.121094,37.2421875 L128.929688,37.6875 L128.929688,41.2265625 Z M142.207031,26.4023438 L140.917969,26.4023438 L140.917969,24.5039062 L142.207031,24.5039062 L142.207031,26.4023438 Z M146.8125,26.4023438 L145.488281,26.4023438 L145.488281,24.5039062 L146.8125,24.5039062 L146.8125,26.4023438 Z M142.207031,30.890625 L140.917969,30.890625 L140.917969,28.8984375 L142.207031,28.8984375 L142.207031,30.890625 Z M146.8125,30.890625 L145.488281,30.890625 L145.488281,28.8984375 L146.8125,28.8984375 L146.8125,30.890625 Z M169.804688,42.6328125 C170.320312,42.6328125 170.691406,42.59375 170.917969,42.515625 C171.519531,42.2890625 171.933594,41.8710938 172.160156,41.2617188 C172.246094,41.0273438 172.289062,40.6445312 172.289062,40.1132812 L172.289062,40.1132812 L172.289062,35.1210938 L162,35.1210938 L162.304688,33.9375 L173.789062,33.9375 L173.789062,31.4414062 L164.730469,31.4414062 C165.480469,31.0273438 166.21875,30.5742188 166.945312,30.0820312 L166.945312,30.0820312 L174.914062,30.0820312 L174.914062,27.4335938 L170.179688,27.4335938 C170.84375,26.8007812 171.449219,26.1914062 171.996094,25.6054688 C172.832031,24.6992188 173.785156,23.453125 174.855469,21.8671875 L174.855469,21.8671875 L170.742188,21.8671875 C170.007812,22.7890625 169.316406,23.6289062 168.667969,24.3867188 L168.667969,24.3867188 L168.667969,22.9921875 L164.859375,22.9921875 L164.859375,21.0234375 L160.96875,21.0234375 L160.96875,22.9921875 L155.296875,22.9921875 L155.296875,25.640625 L160.96875,25.640625 L160.96875,27.4335938 L153.1875,27.4335938 L153.1875,30.0820312 L161.460938,30.0820312 C160.515625,30.6132812 159.480469,31.109375 158.355469,31.5703125 C157.277344,32.0078125 155.503906,32.6640625 153.035156,33.5390625 L153.035156,33.5390625 L153.035156,35.7890625 C155.121094,35.2109375 157.015625,34.625 158.71875,34.03125 L158.71875,34.03125 L157.746094,37.6992188 L168.5625,37.6992188 L168.5625,39.984375 L161.144531,39.984375 L161.730469,42.6328125 L169.804688,42.6328125 Z M165.410156,27.4335938 L164.859375,27.4335938 L164.859375,25.640625 L167.496094,25.640625 C167.042969,26.0859375 166.410156,26.6367188 165.597656,27.2929688 L165.597656,27.2929688 L165.410156,27.4335938 Z M184.6875,38.0625 C186.140625,37.5546875 187.238281,37.1328125 187.980469,36.796875 C191.011719,35.421875 193.339844,33.5898438 194.964844,31.3007812 C195.613281,30.3867188 196.285156,29.0351562 196.980469,27.2460938 L196.980469,27.2460938 L193.5,27.2460938 C193.015625,28.3945312 192.585938,29.2890625 192.210938,29.9296875 L192.210938,29.9296875 L189.09375,29.9296875 C190.34375,28.875 191.355469,27.6484375 192.128906,26.25 L192.128906,26.25 L198.972656,26.25 L198.972656,23.6132812 L194.015625,23.6132812 C193.6875,22.7851562 193.230469,21.9296875 192.644531,21.046875 L192.644531,21.046875 L189.703125,21.046875 C189.929688,22 190.089844,22.8554688 190.183594,23.6132812 L190.183594,23.6132812 L185.167969,23.6132812 L185.167969,26.25 L188.460938,26.25 C187.84375,27.5234375 186.902344,28.796875 185.636719,30.0703125 L185.636719,30.0703125 L185.636719,32.4140625 L190.148438,32.4140625 C188.835938,33.53125 187.015625,34.5976562 184.6875,35.6132812 L184.6875,35.6132812 L184.6875,38.0625 Z M182.566406,43.0898438 L182.566406,29.8710938 C182.832031,31.1054688 183.046875,32.7382812 183.210938,34.7695312 L183.210938,34.7695312 L185.507812,34.7695312 C185.179688,32.7226562 184.597656,30.7421875 183.761719,28.828125 L183.761719,28.828125 L182.566406,28.828125 L182.566406,27.4453125 L184.628906,27.4453125 L184.628906,24.8085938 L182.566406,24.8085938 L182.566406,21.0585938 L179.355469,21.0585938 L179.355469,24.8085938 L177.09375,24.8085938 L177.09375,27.4453125 L179.203125,27.4453125 C178.804688,29.703125 178.234375,31.5390625 177.492188,32.953125 C177.320312,33.28125 177.042969,33.7148438 176.660156,34.2539062 L176.660156,34.2539062 L176.660156,37.78125 C177.730469,36.734375 178.628906,35.6328125 179.355469,34.4765625 L179.355469,34.4765625 L179.355469,43.0898438 L182.566406,43.0898438 Z M184.535156,42.9726562 C188.707031,41.6132812 191.636719,40.2929688 193.324219,39.0117188 C194.058594,40.0585938 194.6875,41.1835938 195.210938,42.3867188 L195.210938,42.3867188 L199.347656,42.3867188 C198.371094,40.7382812 197,39.0546875 195.234375,37.3359375 C195.875,36.6484375 196.410156,35.9765625 196.839844,35.3203125 C197.503906,34.296875 198.117188,32.9882812 198.679688,31.3945312 L198.679688,31.3945312 L195.269531,31.3945312 C194.910156,32.1601562 194.625,32.7304688 194.414062,33.1054688 C192.78125,36.0117188 190.183594,38.2265625 186.621094,39.75 C186.183594,39.9375 185.488281,40.2070312 184.535156,40.5585938 L184.535156,40.5585938 L184.535156,42.9726562 Z" id="综合管理考核"></path>
            </g>
        </g>
    </g>
</svg>