<?xml version="1.0" encoding="UTF-8"?>
<svg width="24px" height="24px" viewBox="0 0 24 24" version="1.1" xmlns="http://www.w3.org/2000/svg" xmlns:xlink="http://www.w3.org/1999/xlink">
    <title>图标/24/消息</title>
    <g id="控件" stroke="none" stroke-width="1" fill="none" fill-rule="evenodd">
        <g id="图标/24/消息" fill-rule="nonzero">
            <g id="消息">
                <rect id="矩形" fill="#000000" opacity="0" x="0" y="0" width="24" height="24"></rect>
                <path d="M12,21.55 C10.15,21.55 8.7,20.05 8.7,18.25 C8.7,17.85 9.04999999,17.5 9.45,17.5 C9.85000001,17.5 10.2,17.85 10.2,18.25 C10.2,19.25 11,20.05 12,20.05 C13,20.05 13.8,19.25 13.8,18.25 C13.8,17.85 14.15,17.5 14.55,17.5 C14.95,17.5 15.3,17.85 15.3,18.25 C15.3,20.1 13.85,21.55 12,21.55 L12,21.55 Z" id="路径" fill="#FFFFFF"></path>
                <path d="M19.1,18.75 L4.90000001,18.75 C3.9,18.75 3.05000002,17.9 3,16.9 C3,16.1 3.45,15.4 4.15000001,15.05 C4.60000001,14.85 4.8,14.75 5,14.45 C5.5,13.6 5.44999999,12.5 5.35000001,11.35 C5.30000002,10.35 5.20000001,9.3 5.55,8.25000001 C6.15,6.19999999 7.69999999,4.5 9.6,3.70000001 C10.35,3.40000001 11.1,3.25000001 11.9,3.25000001 L12,3.25000001 C13.95,3.25000001 15.9,4.2 17.15,5.75000001 C17.95,6.69999998 18.45,7.95 18.65,9.34999999 C18.75,10.1 18.7,10.85 18.65,11.55 C18.6,12.55 18.55,13.5 18.9,14.3 C19.05,14.65 19.35,14.95 19.75,15.15 C20.15,15.35 20.95,15.8 20.95,16.9 C21,17.9 20.15,18.75 19.1,18.75 Z M12,4.75000001 L11.95,4.75000001 C11.35,4.75000001 10.75,4.90000001 10.2,5.1 C8.7,5.7 7.5,7.05 7,8.65000001 C6.75,9.40000001 6.80000002,10.3 6.9,11.2 C7,12.5 7.05,13.9 6.34999999,15.15 C5.89999999,15.9 5.29999999,16.15 4.84999999,16.4 C4.59999998,16.5 4.5,16.65 4.5,16.85 C4.5,17.05 4.69999999,17.25 4.90000001,17.25 L19.15,17.25 C19.35,17.25 19.5,17.05 19.5,16.85 C19.5,16.7 19.5,16.65 19.1,16.45 C18.45,16.1 17.9,15.6 17.6,14.95 C17.1,13.85 17.15,12.65 17.2,11.5 C17.25,10.8 17.3,10.2 17.2,9.6 C17.05,8.50000001 16.6,7.5 16,6.75000001 C15,5.44999999 13.5,4.75000001 12,4.75000001 L12,4.75000001 Z" id="形状" fill="#FFFFFF"></path>
                <path d="M12,4.65 C11.6,4.65 11.25,4.30000001 11.25,3.9 L11.25,2.74999999 C11.25,2.29999999 11.6,1.99999999 12,1.99999999 C12.4,1.99999999 12.75,2.34999998 12.75,2.74999999 L12.75,3.9 C12.75,4.30000001 12.4,4.65 12,4.65 Z" id="路径" fill="#FFFFFF"></path>
            </g>
        </g>
    </g>
</svg>