<?xml version="1.0" encoding="UTF-8"?>
<svg width="24px" height="24px" viewBox="0 0 24 24" version="1.1" xmlns="http://www.w3.org/2000/svg" xmlns:xlink="http://www.w3.org/1999/xlink">
    <title>密码</title>
    <g id="页面2" stroke="none" stroke-width="1" fill="none" fill-rule="evenodd">
        <g id="登录页" transform="translate(-812.000000, -536.000000)">
            <g id="编组-8" transform="translate(768.000000, 325.000000)">
                <g id="编组-3" transform="translate(32.000000, 200.000000)">
                    <g id="密码" transform="translate(12.000000, 11.000000)">
                        <rect id="矩形" fill="#000000" fill-rule="nonzero" opacity="0" x="0" y="0" width="24" height="24"></rect>
                        <rect id="矩形" fill="#3786FD" x="11" y="15" width="2" height="4" rx="1"></rect>
                        <path d="M17,23 L7,23 C4.8,23 3,21.2 3,19 L3,11.5 C3,10.4 3.9,9.49999999 5,9.49999999 L19,9.49999999 C20.1,9.49999999 21,10.4 21,11.5 L21,19 C21,21.2 19.2,23 17,23 L17,23 Z M4.99999999,11.5 L4.99999999,19 C4.99999999,20.1 5.89999999,21 6.99999999,21 L17,21 C18.1,21 19,20.1 19,19 L19,11.5 L4.99999999,11.5 Z" id="形状" fill="#273149" fill-rule="nonzero"></path>
                        <path d="M19,11.5 L4.99999999,11.5 L4.99999999,8.00000001 C4.99999999,4.14999998 8.14999999,1.00000001 12,1.00000001 C15.85,1.00000001 19,4.15000001 19,8.00000001 L19,11.5 Z M7.00000001,9.5 L17,9.5 L17,8 C17,5.25 14.75,3 12,3 C9.25000001,3 7.00000001,5.25 7.00000001,8 L7.00000001,9.5 Z" id="形状" fill="#273149" fill-rule="nonzero"></path>
                        <path d="M10,15.25 C10,16.3545695 10.8954305,17.25 12,17.25 C13.1045695,17.25 14,16.3545695 14,15.25 C14,14.1454305 13.1045695,13.25 12,13.25 C10.8954305,13.25 10,14.1454305 10,15.25 Z" id="路径" fill="#3786FD" fill-rule="nonzero"></path>
                    </g>
                </g>
            </g>
        </g>
    </g>
</svg>