<?xml version="1.0" standalone="no"?><!DOCTYPE svg PUBLIC "-//W3C//DTD SVG 1.1//EN" "http://www.w3.org/Graphics/SVG/1.1/DTD/svg11.dtd"><svg class="icon" width="200px" height="200.00px" viewBox="0 0 1024 1024" version="1.1" xmlns="http://www.w3.org/2000/svg"><path d="M555.65899999 538.294625H451.968875s7.441875-37.7055 0-41.6745c-7.441875-3.96899999-135.442125 60.52725-135.442125 70.44975s128.9925 78.38775 135.442125 70.945875c6.449625-7.441875 0-41.6745 0-41.6745h103.69012499c48.124125 0 87.318 35.224875 87.318 78.883875s-39.193875 78.883875-87.318 78.88387501c0 0-154.294875-7.441875-162.23287499 0-7.441875 7.441875-6.449625 55.566 0 58.04662499s162.232875 0 162.23287501 0c83.845125 0 151.81425-61.5195 151.81424999-137.42662499s-67.969125-136.434375-151.81424999-136.43437501z"  /><path d="M963.47375 361.674125c0-5.9535-1.9845-11.90699999-4.96125-16.372125C939.163625 282.79025 862.26425 60.52625 752.620625 60.52625H255.9995C186.542 60.52625 95.25499999 273.86 68.46425 341.33299999c-2.480625 2.480625-4.465125 5.9535-5.9535 8.93025001-0.99225 3.96899999-1.9845 7.441875-1.9845 11.410875v541.7685c0 1.9845 0.496125 3.96899999 0.496125 5.9535 2.97675 30.263625 28.279125 54.077625 59.535 54.077625h782.389125c33.240375 0 60.031125-26.79075 60.031125-60.031125V391.441625c0-4.96125-0.99225-9.9225-1.9845-14.88375 1.488375-3.472875 2.480625-8.434125 2.480625-14.88375zM280.309625 120.557375h450.4815c80.37225 0 138.91499999 144.372375 161.73675 210.853125h-759.07125c28.279125-65.984625 95.256-210.853125 146.853-210.853125z m623.133 752.62162499c0 16.372125-13.395375 30.263625-30.26362499 30.26362501H150.82100001c-16.372125 0-30.263625-13.395375-30.26362501-30.26362501v-451.47374999c0-16.372125 13.395375-30.263625 30.26362501-30.263625h722.35799998c16.372125 0 30.263625 13.395375 30.26362501 30.263625v451.47374999z"  /></svg>