<?xml version="1.0" standalone="no"?><!DOCTYPE svg PUBLIC "-//W3C//DTD SVG 1.1//EN" "http://www.w3.org/Graphics/SVG/1.1/DTD/svg11.dtd"><svg class="icon" width="200px" height="200.00px" viewBox="0 0 1024 1024" version="1.1" xmlns="http://www.w3.org/2000/svg"><path d="M940.8 369.1l-71.2-210.2C851 104 799.7 67.2 741.8 67.2H280.5c-57.6 0-108.9 36.6-127.7 91.1L82.1 364.6c-11 23.6-17 48.8-17.7 75-1.3 51.2 17.3 99.5 52.5 136.3 3.5 3.7 7.2 7.2 10.9 10.5v276.5c0 53.5 43.6 97.1 97.1 97.1h571c53.5 0 97.1-43.6 97.1-97.1V585.8c39.3-35.1 63.9-86.2 63.5-142.6-0.2-25.7-5.5-50.6-15.7-74.1zM795.9 896h-571c-18.2 0-33.1-14.8-33.1-33.1V623.8c18.7 6.4 38.5 9.9 58.8 10.2h3c48 0 93.8-18.2 128.4-50.2 34.7 31.9 80.4 50.2 128.3 50.2 47.9 0 93.7-18.3 128.3-50.2 35.4 32.7 82.4 50.9 131.5 50.1 20.5-0.3 40.3-4 58.7-10.4v239.4h0.2c0 18.2-14.8 33.1-33.1 33.1z m-26.7-325.9c-41.4 0.7-80.4-19.1-104.4-52.8L654.1 502c-7.5-10.5-23.1-10.5-30.6 0l-10.8 15.2c-23.5 33.1-61.7 52.9-102.3 52.9-40.5 0-78.8-19.8-102.3-52.9L397.4 502c-7.5-10.5-23.1-10.5-30.6 0L356 517.1c-24 33.7-62.9 53.5-104.3 52.8-33.9-0.5-65.3-14.2-88.6-38.4-23.3-24.2-35.6-56.3-34.7-90.2 0.5-17.8 4.6-34.9 12.2-50.8l0.8-1.7 72-209.7c9.8-28.7 36.8-47.9 67.1-47.9h461.2c30.4 0 57.5 19.4 67.2 48.2L880.5 391l0.5 1.4 0.6 1.4c7 15.8 10.6 32.6 10.8 50 0.5 68.5-54.7 125.2-123.2 126.3zM672.1 287H350.6c-17.7 0-32 14.3-32 32s14.3 32 32 32h321.5c17.7 0 32-14.3 32-32s-14.3-32-32-32z" /></svg>