<?xml version="1.0" standalone="no"?><!DOCTYPE svg PUBLIC "-//W3C//DTD SVG 1.1//EN" "http://www.w3.org/Graphics/SVG/1.1/DTD/svg11.dtd"><svg class="icon" width="200px" height="192.12px" viewBox="0 0 1066 1024" version="1.1" xmlns="http://www.w3.org/2000/svg"><path d="M180.494153 161.848271a37.601357 37.601357 0 0 1-37.601356-22.560814 30.081085 30.081085 0 0 1 22.560814-45.121628L353.460394 11.442845a37.601357 37.601357 0 0 1 52.641899 7.520271 203.047326 203.047326 0 0 0 112.80407 67.682442A180.486512 180.486512 0 0 0 646.750975 18.963116a37.601357 37.601357 0 0 1 52.641899-7.520271 37.601357 37.601357 0 0 1 0 52.641899 225.60814 225.60814 0 0 1-180.486511 97.763527 218.087868 218.087868 0 0 1-150.405427-75.202713l-172.96624 75.202713zM376.021208 1011.63893h-30.081086a37.601357 37.601357 0 0 1 0-52.641899 248.168953 248.168953 0 0 1 188.006783-97.763527 255.689225 255.689225 0 0 1 150.405427 75.202713l150.405426-67.682442a45.121628 45.121628 0 0 1 52.641899 15.040543 37.601357 37.601357 0 0 1-22.560814 52.641899l-165.445969 75.202713a37.601357 37.601357 0 0 1-52.641899-7.520271 203.047326 203.047326 0 0 0-112.80407-67.682442 195.527054 195.527054 0 0 0-135.364883 67.682442s-15.040543 7.520271-22.560814 7.520271zM37.608998 650.665907a37.601357 37.601357 0 0 1-37.601356-37.601357V425.057767a37.601357 37.601357 0 0 1 30.081085-37.601356A218.087868 218.087868 0 0 0 135.372526 304.733426a180.486512 180.486512 0 0 0 7.520271-165.445969 45.121628 45.121628 0 0 1 30.081085-52.641899 45.121628 45.121628 0 0 1 45.121628 30.081085 285.77031 285.77031 0 0 1-15.040543 225.60814A263.209496 263.209496 0 0 1 75.210355 447.618581v165.445969a37.601357 37.601357 0 0 1-37.601357 37.601357zM849.798301 928.915946c-15.040543 0-30.081085-7.520271-30.081086-22.560814a240.648682 240.648682 0 0 1 15.040543-218.087869 210.567597 210.567597 0 0 1 135.364884-105.283798V425.057767a37.601357 37.601357 0 0 1 37.601356-37.601356 37.601357 37.601357 0 0 1 37.601357 37.601356v188.006783a30.081085 30.081085 0 0 1-30.081085 30.081085 233.128411 233.128411 0 0 0-120.324341 82.722985 218.087868 218.087868 0 0 0-7.520272 157.925698 37.601357 37.601357 0 0 1-22.560814 45.121628zM376.021208 1011.63893h-15.040543l-195.527054-67.682442-22.560814-22.560814v-30.081085a240.648682 240.648682 0 0 0 15.040542-165.445969A203.047326 203.047326 0 0 0 30.088727 643.145635c-22.560814 0-30.081085-22.560814-30.081085-45.121627a37.601357 37.601357 0 0 1 45.121628-22.560814A218.087868 218.087868 0 0 1 225.615781 695.787535a270.729767 270.729767 0 0 1 0 188.006783l157.925698 52.641899a52.641899 52.641899 0 0 1 30.081085 52.641899 37.601357 37.601357 0 0 1-37.601356 22.560814zM1007.723998 462.659124a255.689225 255.689225 0 0 1-188.006783-112.80407 323.371667 323.371667 0 0 1-15.040542-203.047325L661.791518 79.125287a45.121628 45.121628 0 0 1-22.560814-52.6419 37.601357 37.601357 0 0 1 52.641899-22.560813l172.96624 90.243255a30.081085 30.081085 0 0 1 22.560814 45.121628 248.168953 248.168953 0 0 0 0 172.966241 195.527054 195.527054 0 0 0 127.844613 75.202713 30.081085 30.081085 0 0 1 30.081085 45.121628 37.601357 37.601357 0 0 1-37.601357 30.081085zM526.426634 710.828077a203.047326 203.047326 0 1 1 195.527054-203.047325A203.047326 203.047326 0 0 1 526.426634 710.828077zM526.426634 379.936139a135.364884 135.364884 0 0 0-127.844612 127.844613A135.364884 135.364884 0 0 0 526.426634 635.625364a127.844612 127.844612 0 0 0 120.324341-127.844612A127.844612 127.844612 0 0 0 526.426634 379.936139z" /></svg>