<?xml version="1.0" encoding="UTF-8"?>
<svg width="16px" height="16px" viewBox="0 0 16 16" version="1.1" xmlns="http://www.w3.org/2000/svg" xmlns:xlink="http://www.w3.org/1999/xlink">
    <title>icon_16_x</title>
    <g id="考核管理" stroke="none" stroke-width="1" fill="none" fill-rule="evenodd">
        <g id="考核管理-考核指标填报-填报内容2" transform="translate(-442.000000, -363.000000)">
            <g id="编组" transform="translate(442.000000, 363.000000)">
                <path d="M8,0 C3.65714286,0 0,3.65714286 0,8 C0,12.3428571 3.65714286,16 8,16 C12.3428571,16 16,12.3428571 16,8 C16,3.65714286 12.3428571,0 8,0 Z" id="路径" fill="#FF5B63" fill-rule="nonzero"></path>
                <path d="M8.43400237,3.50985335 L8.43400237,7.50985335 L12.4340024,7.50985335 L12.4340024,8.50985335 L8.43300237,8.50985335 L8.43400237,12.5098534 L7.43400237,12.5098534 L7.43300237,8.50985335 L3.43400237,8.50985335 L3.43400237,7.50985335 L7.43400237,7.50985335 L7.43400237,3.50985335 L8.43400237,3.50985335 Z" id="形状结合" fill="#FFFFFF" transform="translate(7.934002, 8.009853) rotate(-315.000000) translate(-7.934002, -8.009853) "></path>
            </g>
        </g>
    </g>
</svg>