<?xml version="1.0" encoding="UTF-8"?>
<svg width="24px" height="24px" viewBox="0 0 24 24" version="1.1" xmlns="http://www.w3.org/2000/svg" xmlns:xlink="http://www.w3.org/1999/xlink">
    <title>用户</title>
    <g id="页面2" stroke="none" stroke-width="1" fill="none" fill-rule="evenodd">
        <g id="登录页" transform="translate(-812.000000, -466.000000)" fill-rule="nonzero">
            <g id="编组-8" transform="translate(768.000000, 325.000000)">
                <g id="编组-2" transform="translate(32.000000, 130.000000)">
                    <g id="用户" transform="translate(12.000000, 11.000000)">
                        <rect id="矩形" fill="#000000" opacity="0" x="0" y="0" width="24" height="24"></rect>
                        <path d="M12,0 C14.9823376,0 17.4,2.41766235 17.4,5.4 C17.4,8.38233765 14.9823376,10.8 12,10.8 C9.01766235,10.8 6.6,8.38233765 6.6,5.4 C6.6,2.41766235 9.01766235,0 12,0 Z M12,2.4 C10.9282032,2.4 9.93782215,2.97179675 9.40192375,3.9 C8.86602536,4.82820322 8.86602536,5.97179678 9.40192375,6.9 C9.93782215,7.82820325 10.9282032,8.4 12,8.4 C13.6568542,8.4 15,7.05685425 15,5.4 C15,3.74314575 13.6568542,2.4 12,2.4 Z M19.2,14.8506 L19.2,21.6 L4.8,21.6 L4.8,14.8506 L6.603,12.7902 L4.797,11.2098 L2.4,13.9494 L2.4,24 L21.6,24 L21.6,13.9494 L19.203,11.2098 L17.397,12.7902 L19.2,14.8506 Z" id="形状" fill="#273149"></path>
                        <path d="M9.4542,12.1032 L12,14.6484 L14.5458,12.1032 L16.242,13.8 L12,18.0426 L7.7574,13.8 L9.4542,12.1032 Z M14.5458,13.8 L14.5458,15.4968 L12.8484,13.8 L14.5458,13.8 Z" id="形状" fill="#3786FD"></path>
                    </g>
                </g>
            </g>
        </g>
    </g>
</svg>